<svg width="16" height="17" viewBox="0 0 16 17" fill="none" xmlns="http://www.w3.org/2000/svg">
<path d="M15.5456 14.2244C15.7495 14.4283 15.864 14.7047 15.864 14.993C15.864 15.2813 15.7495 15.5577 15.5456 15.7616C15.3418 15.9654 15.0653 16.0799 14.7771 16.0799C14.4888 16.0799 14.2123 15.9654 14.0085 15.7616L8.26771 10.019L2.5251 15.7598C2.32126 15.9636 2.0448 16.0781 1.75653 16.0781C1.46826 16.0781 1.19179 15.9636 0.987955 15.7598C0.784117 15.5559 0.669601 15.2795 0.669601 14.9912C0.669601 14.7029 0.784117 14.4265 0.987955 14.2226L6.73056 8.48182L0.989763 2.73922C0.785925 2.53538 0.67141 2.25892 0.67141 1.97064C0.67141 1.68237 0.785925 1.40591 0.989763 1.20207C1.1936 0.998232 1.47007 0.883717 1.75834 0.883717C2.04661 0.883717 2.32307 0.998232 2.52691 1.20207L8.26771 6.94467L14.0103 1.20117C14.2141 0.997328 14.4906 0.882812 14.7789 0.882812C15.0672 0.882813 15.3436 0.997328 15.5475 1.20117C15.7513 1.405 15.8658 1.68147 15.8658 1.96974C15.8658 2.25801 15.7513 2.53448 15.5475 2.73831L9.80485 8.48182L15.5456 14.2244Z" fill="#1E123B"/>
</svg>
