<svg width="19" height="18" viewBox="0 0 19 18" fill="none" xmlns="http://www.w3.org/2000/svg">
<path fill-rule="evenodd" clip-rule="evenodd" d="M16.7757 0.955807C16.2331 0.413368 15.4972 0.108643 14.73 0.108643C13.9628 0.108643 13.2269 0.413368 12.6843 0.955807L12.0024 1.63866L16.7766 6.41286L17.4576 5.73097C17.7263 5.46228 17.9395 5.14329 18.0849 4.79221C18.2304 4.44112 18.3052 4.06483 18.3052 3.68482C18.3052 3.3048 18.2304 2.92851 18.0849 2.57743C17.9395 2.22634 17.7263 1.90735 17.4576 1.63866L16.7757 0.955807ZM15.4119 7.77664L10.6377 3.00244L1.87053 11.7706C1.67868 11.9625 1.54466 12.2044 1.48377 12.4689L0.491317 16.7656C0.454338 16.9252 0.458579 17.0915 0.503642 17.2489C0.548705 17.4063 0.633106 17.5497 0.748891 17.6654C0.864677 17.7812 1.00803 17.8656 1.16546 17.9107C1.32288 17.9558 1.48918 17.96 1.6487 17.923L5.94644 16.9315C6.21052 16.8705 6.45214 16.7365 6.64377 16.5448L15.4119 7.77664Z" fill="#1E123B"/>
</svg>
